<svg width="34" height="35" viewBox="0 0 34 35" fill="none" xmlns="http://www.w3.org/2000/svg">
<path fill-rule="evenodd" clip-rule="evenodd" d="M22.8 23.4715C23.3107 22.9458 24.1387 22.9458 24.6494 23.4715L33.616 32.7019C34.1267 33.2277 34.1267 34.08 33.616 34.6057C33.1053 35.1314 32.2773 35.1314 31.7667 34.6057L22.8 25.3753C22.2893 24.8496 22.2893 23.9973 22.8 23.4715Z" fill="white"/>
<path fill-rule="evenodd" clip-rule="evenodd" d="M6.28723 2.45428C8.61365 0.854097 11.3488 0 14.1467 0V1.34615L14.1468 0C17.8987 0.000245846 21.4968 1.53461 24.1497 4.26561C26.8027 6.9966 28.2932 10.7006 28.2934 14.5628V14.5628C28.2934 17.4431 27.4638 20.2587 25.9093 22.6535C24.3548 25.0484 22.1454 26.9149 19.5604 28.0172C16.9755 29.1194 14.131 29.4078 11.3868 28.8459C8.64264 28.284 6.12194 26.897 4.14349 24.8603C2.16503 22.8237 0.817686 20.2288 0.271832 17.4039C-0.274023 14.579 0.00612946 11.6509 1.07686 8.98989C2.14759 6.32887 3.96081 4.05447 6.28723 2.45428ZM14.1467 2.69231C17.205 2.69253 20.1379 3.94324 22.3004 6.16935C24.4629 8.39546 25.6779 11.4147 25.6781 14.5628M14.1466 2.69231C11.866 2.69232 9.63655 3.38852 7.74025 4.69285C5.84393 5.9972 4.36593 7.85113 3.49315 10.0202C2.62037 12.1892 2.39201 14.576 2.83695 16.8787C3.28189 19.1813 4.38015 21.2965 5.99283 22.9566C7.60552 24.6167 9.66021 25.7473 11.8971 26.2053C14.1339 26.6633 16.4525 26.4283 18.5596 25.5298C20.6667 24.6313 22.4676 23.1099 23.7347 21.1578C25.0018 19.2057 25.6781 16.9107 25.6781 14.5629" fill="white"/>
</svg>
